<svg width="224" height="142" viewBox="0 0 224 142" fill="none" xmlns="http://www.w3.org/2000/svg">
<g clip-path="url(#clip0_123_4)">
<path d="M112 94.6667C109.819 94.6694 107.706 94.1879 106.027 93.3059L50.0267 63.7225C48.1207 62.7182 46.9221 61.2751 46.6945 59.7106C46.467 58.1461 47.2292 56.5883 48.8134 55.38C50.3976 54.1717 52.6741 53.4119 55.1421 53.2677C57.6101 53.1234 60.0674 53.6066 61.9734 54.6109L112 81.1175L162.027 55.5575C162.981 55.0661 164.08 54.699 165.259 54.4776C166.438 54.2561 167.675 54.1845 168.898 54.267C170.121 54.3495 171.306 54.5844 172.385 54.9581C173.464 55.3319 174.417 55.8372 175.187 56.445C176.041 57.0534 176.689 57.7671 177.088 58.5414C177.488 59.3158 177.63 60.134 177.508 60.945C177.385 61.756 177 62.5421 176.375 63.2542C175.751 63.9663 174.902 64.5891 173.88 65.0834L117.88 93.6609C116.153 94.4035 114.082 94.7576 112 94.6667Z" fill="white"/>
</g>
<defs>
<clipPath id="clip0_123_4">
<rect width="224" height="142" fill="white"/>
</clipPath>
</defs>
</svg>
