<svg width="30" height="25" viewBox="0 0 30 25" fill="none" xmlns="http://www.w3.org/2000/svg">
<path d="M29.3202 2.83461C28.8489 3.04364 28.3643 3.22006 27.8692 3.36329C28.4554 2.70039 28.9023 1.92039 29.1751 1.06684C29.2363 0.875516 29.1729 0.666097 29.0156 0.540968C28.8586 0.415742 28.6403 0.400742 28.4674 0.503226C27.416 1.12684 26.2816 1.575 25.0921 1.83706C23.894 0.66629 22.2666 0 20.5843 0C17.0331 0 14.1441 2.889 14.1441 6.44003C14.1441 6.71971 14.1618 6.99784 14.1968 7.2721C9.79018 6.88519 5.69344 4.71929 2.88021 1.26842C2.77996 1.14542 2.6255 1.07913 2.46738 1.09181C2.30915 1.10419 2.16699 1.19342 2.08705 1.33055C1.51647 2.30961 1.21483 3.42939 1.21483 4.56871C1.21483 6.12048 1.76886 7.59281 2.74754 8.74326C2.44996 8.64019 2.16118 8.51139 1.88557 8.35839C1.7376 8.27603 1.55702 8.27729 1.41002 8.36158C1.26292 8.44587 1.1707 8.6009 1.16683 8.77035C1.16615 8.7989 1.16615 8.82745 1.16615 8.85639C1.16615 11.1727 2.41279 13.2581 4.31876 14.3947C4.15502 14.3783 3.99138 14.3546 3.82879 14.3235C3.66118 14.2915 3.48883 14.3503 3.37579 14.4781C3.26257 14.6058 3.22512 14.7839 3.27728 14.9465C3.98276 17.1491 5.79912 18.7692 7.99492 19.2631C6.17373 20.4038 4.09105 21.0013 1.90473 21.0013C1.44854 21.0013 0.98973 20.9744 0.540698 20.9213C0.317633 20.8948 0.104343 21.0265 0.0283754 21.2386C-0.0475924 21.4509 0.0329237 21.6875 0.222698 21.8091C3.03138 23.61 6.27902 24.5619 9.61434 24.5619C16.1712 24.5619 20.273 21.4699 22.5592 18.8761C25.4102 15.6418 27.0453 11.3608 27.0453 7.1309C27.0453 6.95419 27.0426 6.77574 27.0372 6.59787C28.162 5.75042 29.1304 4.72481 29.9184 3.546C30.0381 3.36697 30.0252 3.13035 29.8865 2.96555C29.748 2.80064 29.5172 2.74732 29.3202 2.83461Z" fill="white"/>
</svg>
