<svg width="52" height="31" viewBox="0 0 52 31" fill="none" xmlns="http://www.w3.org/2000/svg">
<path d="M49.9732 2.66113C48.0961 0.771 44.6306 0 38.0122 0H13.9873C7.21743 0 3.69317 0.820733 1.82319 2.83306C0 4.79509 0 7.68599 0 11.6871V19.3131C0 27.0644 2.1632 31 13.9873 31H38.0123C43.7518 31 46.9322 30.3197 48.9897 28.6516C51.0997 26.9411 52 24.1482 52 19.3131V11.6871C52 7.46759 51.8589 4.55964 49.9732 2.66113ZM33.3842 16.5529L22.4746 21.3828C22.2307 21.4908 21.964 21.5444 21.6976 21.5444C21.396 21.5444 21.0951 21.4756 20.8285 21.3389C20.3266 21.0813 20.0202 20.6205 20.0202 20.1234V10.4946C20.0202 9.99842 20.3258 9.53803 20.8267 9.28028C21.3277 9.02252 21.9509 9.0049 22.4707 9.23367L33.3803 14.0325C33.9354 14.2766 34.2839 14.762 34.2848 15.2915C34.2854 15.8216 33.9384 16.3077 33.3842 16.5529Z" fill="white"/>
</svg>
